# xmcd CD database file generated by Grip 3.2.0
# 
# Track frame offsets:
#       150
#       14175
#       24587
#       35925
#       59350
#       79725
#       100050
#       112300
#       126400
#       138562
#       148912
#       158500
#       169412
#       181287
#       195050
#       206437
#       222100
#       234050
#       245937
#       258750
#       276700
#       286150
# 
# Disc length: 4478 seconds
# 
# Revision: 2
# Processed by: cddbd v1.5.2PL0 Copyright (c) Steve Scherf et al.
# Submitted via: Grip 3.2.0
# 
DISCID=51117c16
DTITLE=Creedence Clearwater Revival - Really the best
DYEAR=1900
DGENRE=Country
TTITLE0=01 Proud Mary
TTITLE1=02 Bad moon rising
TTITLE2=03 Green river
TTITLE3=04 Born on the bayou
TTITLE4=05 Suzy Q. (Part 1)
TTITLE5=06 I put a spell on you
TTITLE6=07 Down on the corner
TTITLE7=08 Lodi
TTITLE8=09 Commotion
TTITLE9=10 Fortunae son
TTITLE10=11 Travellin' band
TTITLE11=12 Who'll stop the rain?
TTITLE12=13 Up around the bend
TTITLE13=14 Run through the jungle
TTITLE14=15 Lookin' out my back-door
TTITLE15=16 Long as I can see the light
TTITLE16=17 Have you ever seen the rain
TTITLE17=18 Hey, tonight
TTITLE18=19 Sweet hitchhiker
TTITLE19=20 Some day never comes
TTITLE20=21 Molina
TTITLE21=22 I heard it through the grapevine
EXTD=
EXTT0=
EXTT1=
EXTT2=
EXTT3=
EXTT4=
EXTT5=
EXTT6=
EXTT7=
EXTT8=
EXTT9=
EXTT10=
EXTT11=
EXTT12=
EXTT13=
EXTT14=
EXTT15=
EXTT16=
EXTT17=
EXTT18=
EXTT19=
EXTT20=
EXTT21=
PLAYORDER=
